PathFileType	4	(X/Y/Z)	C:\Users\chris\Documents\GitHub\baseballds\vids\pitch5_Sports2D\pitch5_Sports2D_px_person00.trc
DataRate	CameraRate	NumFrames	NumMarkers	Units	OrigDataRate	OrigDataStartFrame	OrigNumFrames
30	30	5	22	m	30	55	149
Frame#	Time	Hip			RHip			RKnee			RAnkle			RBigToe			RSmallToe			RHeel			LHip			LKnee			LAnkle			LBigToe			LSmallToe			LHeel			Neck			Head			Nose			RShoulder			RElbow			RWrist			LShoulder			LElbow			LWrist		
		X1	Y1	Z1	X2	Y2	Z2	X3	Y3	Z3	X4	Y4	Z4	X5	Y5	Z5	X6	Y6	Z6	X7	Y7	Z7	X8	Y8	Z8	X9	Y9	Z9	X10	Y10	Z10	X11	Y11	Z11	X12	Y12	Z12	X13	Y13	Z13	X14	Y14	Z14	X15	Y15	Z15	X16	Y16	Z16	X17	Y17	Z17	X18	Y18	Z18	X19	Y19	Z19	X20	Y20	Z20	X21	Y21	Z21	X22	Y22	Z22
55	1.8333333333333333	758.2964302763905	583.8608638964099	0.0	704.8699378897489	601.0220816991072	0.0	697.1266826972108	800.1969359932509	0.0	683.5575278583344	972.6769880503998	0.0	689.0275912864265	1034.486025300896	0.0	654.2760724256194	1029.7054040235805	0.0	689.8616720789785	996.586299094155	0.0	809.328895543427	602.812589197032	0.0	822.7801561744394	798.8377598408626	0.0	852.2474906770185	966.1720470096024	0.0	811.8981407493878	1029.3986596157818	0.0	847.4209126606345	1031.1674901078757	0.0	863.1972992507573	990.7687771858715	0.0	763.5782541681886	294.46970402049624	0.0	792.7263105429538	168.64676831296174	0.0	837.6479828611408	240.27691744020638	0.0	668.4358581500088	338.61566226741263	0.0	633.9755189553921	478.26135492488766	0.0	720.6109059457805	469.15056452162753	0.0	853.8278095557323	343.209612572821	0.0	883.7070904938823	478.7549813499047	0.0	827.005278689308	496.7760573566643	0.0
56	1.8666666666666667	759.2550777884156	583.1569064967389	0.0	705.4838846320513	599.5780691916561	0.0	697.8913744812767	800.2101143138369	0.0	684.2645844108597	972.397663782407	0.0	690.5173937053187	1033.6371711699037	0.0	654.8451471788303	1029.2088623546783	0.0	690.4356472363772	995.320072903013	0.0	810.1281813939368	600.9685562967279	0.0	823.2673645694989	798.1585381548832	0.0	851.786133883835	967.3296641755167	0.0	812.2708560271071	1030.3060679768994	0.0	847.9413617001277	1031.227527928942	0.0	864.212495773301	991.3303650060432	0.0	764.1498162210781	294.40024540689393	0.0	792.3975248799982	168.58318592133588	0.0	838.3358325129309	239.8979356366206	0.0	669.5555851404312	339.32920837443095	0.0	634.9318020811345	479.39432908037537	0.0	721.6796771469626	468.0595515403257	0.0	854.3920146182055	342.6761880959483	0.0	883.29275710159	478.56020064252436	0.0	828.6391241180537	498.23641111005765	0.0
57	1.9	760.2173413143544	583.3547445951638	0.0	705.9215757079728	599.7399296470835	0.0	698.3738055653592	800.513108515637	0.0	684.8782904400738	973.8190338542653	0.0	690.9907593826729	1033.6981010673471	0.0	655.5302733982812	1030.1174718410582	0.0	691.354041393436	997.7274711621453	0.0	811.3919855052095	600.5002447348486	0.0	823.6073421129943	797.473657338508	0.0	851.4109413006735	967.8720916949339	0.0	812.6742734303854	1030.904675919378	0.0	847.9416161831357	1031.018210633349	0.0	863.9489484340949	991.4850149937406	0.0	764.3752029586452	294.80088663377535	0.0	793.4671562098612	168.96879312029333	0.0	839.0659743296764	240.47342366693564	0.0	670.4647921482879	339.93176060640747	0.0	635.2090366603428	480.4195530763946	0.0	721.9264394609969	466.22788540276906	0.0	854.421657168388	342.39115960412295	0.0	883.6737672870358	478.96544936247636	0.0	830.6769792023589	498.5068935532944	0.0
58	1.9333333333333333	761.3608590235264	583.419335963295	0.0	706.6793663318043	599.993454263221	0.0	698.7298270876881	800.545183190352	0.0	685.4325788858688	975.744228050081	0.0	690.5978696478285	1034.870724725499	0.0	655.9716269400658	1031.7808154001507	0.0	692.5564477748079	1001.0085594146267	0.0	812.9223363477328	600.9846399765203	0.0	823.9806872483932	797.6768392502563	0.0	851.6776325712999	968.4029100439557	0.0	812.6088472315007	1031.4089192581794	0.0	847.3200367747493	1031.2642740121105	0.0	863.5854160603062	992.0122144545389	0.0	764.9003258789027	295.3812764679882	0.0	795.0634170290995	169.37771792844057	0.0	839.7587821494844	241.26255532203987	0.0	671.0552226283855	340.44471299979455	0.0	635.649721127645	481.13595264902284	0.0	722.6137676422987	464.2821660034607	0.0	854.5831285783763	342.8320645714852	0.0	884.8945343805126	479.728106223143	0.0	831.6063856902366	497.3020470733484	0.0
59	1.9666666666666666	762.3347782849883	582.908383130722	0.0	707.9470887695666	598.6893211863604	0.0	698.9425261993852	799.9747293237141	0.0	685.7126935702163	976.2817424098571	0.0	690.3155251521436	1037.008668262046	0.0	656.1233471582452	1033.1636031085673	0.0	693.4799172486266	1001.2995171096238	0.0	814.3632385456883	600.9392630591062	0.0	824.6269450854247	798.333829232169	0.0	852.3341298049545	969.1631255364927	0.0	812.0283234068402	1031.887324645829	0.0	846.7958741438939	1031.7651375001606	0.0	864.6376301124446	993.2905524747099	0.0	766.2417576246534	295.50133206182113	0.0	796.0848406950942	169.73421802702495	0.0	840.540167916754	241.69009654944432	0.0	671.7921635136994	340.589477994665	0.0	636.8067605289045	480.94891226432856	0.0	724.8033553655123	463.2162060367675	0.0	855.6172277114936	343.7415238335403	0.0	886.1513606665119	480.8929446062321	0.0	831.3856676686748	495.95682049136326	0.0
